<svg height='100px' width='100px'  fill="#001a80" xmlns="http://www.w3.org/2000/svg" xmlns:xlink="http://www.w3.org/1999/xlink" xml:space="preserve" version="1.0" style="shape-rendering:geometricPrecision;text-rendering:geometricPrecision;image-rendering:optimizeQuality;" viewBox="0 0 234 239" x="0px" y="0px" fill-rule="evenodd" clip-rule="evenodd"><defs><style type="text/css">
   
    .fil0 {fill:#001a80}
   
  </style></defs><g><polygon class="fil0" points="35,11 118,0 148,11 148,116 119,116 119,239 83,239 83,216 70,216 70,239 45,239 45,69 35,65 "></polygon><polygon class="fil0" points="153,124 234,143 234,239 153,239 "></polygon><polygon class="fil0" points="126,123 148,123 148,239 126,239 "></polygon><polygon class="fil0" points="23,67 39,73 39,239 23,239 "></polygon><polygon class="fil0" points="0,73 21,66 21,239 0,239 "></polygon></g></svg>