<svg height='100px' width='100px'  fill="#001a80" xmlns="http://www.w3.org/2000/svg" xmlns:xlink="http://www.w3.org/1999/xlink" xml:space="preserve" version="1.1" style="shape-rendering:geometricPrecision;text-rendering:geometricPrecision;image-rendering:optimizeQuality;" viewBox="0 0 333 333" x="0px" y="0px" fill-rule="evenodd" clip-rule="evenodd"><defs><style type="text/css">
   
    .fil0 {fill:#001a80}
   
  </style></defs><g><path class="fil0" d="M29 83l24 1c5,-17 15,-40 37,-37 29,4 50,46 58,70l94 1c11,-22 23,-36 48,-28 -2,-21 -16,-28 -35,-33l-173 -34c-51,-13 -61,16 -53,60z"></path><path class="fil0" d="M145 119c-7,-23 -28,-65 -56,-68 -20,-3 -29,21 -34,37l-3 -1c-3,9 -4,18 -4,27 0,28 15,74 49,74 32,0 47,-43 48,-69zm-51 -39c20,0 27,27 27,41 0,15 -7,42 -27,42 -19,0 -26,-27 -26,-42 0,-14 7,-41 26,-41zm0 3c-16,0 -22,26 -22,38 0,13 6,39 22,39 17,0 23,-26 23,-39 0,-12 -6,-38 -23,-38z"></path><path class="fil0" d="M175 181c1,1 2,2 3,3 -6,2 -15,7 -12,17 5,13 30,31 43,29 4,-1 14,-5 19,-7l-3 24c0,0 -23,7 -24,32 -2,24 31,44 72,29 50,-18 40,-71 4,-76 -6,-6 -11,-12 -15,-22 11,-19 1,-34 -13,-38 29,-14 36,-52 25,-81 -13,0 -24,18 -29,30l-97 -1c-1,24 -9,54 -33,66l60 -5zm102 119c-11,5 -27,8 -41,6 -28,-4 -42,-31 -16,-50 -23,24 -6,41 15,46 19,4 42,-2 42,-2z"></path><polygon class="fil0" points="234,37 213,37 213,46 234,49 "></polygon></g></svg>