<svg height='100px' width='100px'  fill="#001a80" xmlns="http://www.w3.org/2000/svg" viewBox="0 0 100 100" x="0px" y="0px"><title>99. Floor</title><g data-name="Layer 112"><polygon points="15.84 54.43 10.68 71.14 36.22 71.14 37.94 54.43 15.84 54.43"></polygon><polygon points="39.21 42.12 39.45 39.8 20.36 39.8 16.15 53.43 38.04 53.43 39.21 42.12"></polygon><polygon points="40.56 29 23.7 29 20.67 38.8 39.55 38.8 40.56 29"></polygon><polygon points="59.45 38.8 58.44 29 41.56 29 40.55 38.8 59.45 38.8"></polygon><polygon points="37.22 71.14 62.78 71.14 61.43 58.02 61.06 54.43 38.94 54.43 37.22 71.14"></polygon><polygon points="40.45 39.8 39.05 53.43 60.95 53.43 59.55 39.8 40.45 39.8"></polygon><polygon points="79.33 38.8 76.3 29 59.44 29 60.45 38.8 79.33 38.8"></polygon><polygon points="61.96 53.43 83.85 53.43 79.64 39.8 60.55 39.8 61.96 53.43"></polygon><polygon points="62.06 54.43 63.78 71.14 89.32 71.14 84.16 54.43 62.06 54.43"></polygon><rect x="63.83" y="72.14" width="25.67" height="5.57"></rect><rect x="37.17" y="72.14" width="25.67" height="5.57"></rect><rect x="10.5" y="72.14" width="25.67" height="5.57"></rect></g></svg>