<svg height='100px' width='100px'  fill="#001a80" xmlns="http://www.w3.org/2000/svg" data-name="Layer 1" viewBox="0 0 128 128" x="0px" y="0px"><title>Application 1</title><path d="M91.09,41.14c-1.12-2-1.9-4.2-4.22-4.2H41.47c-2.32,0-3,2.21-4.22,4.2C28.59,55.67,5.57,96.8,5.57,96.8A4.22,4.22,0,0,0,9.79,101H49.18V93.14A8.18,8.18,0,0,1,57.37,85H71a8.18,8.18,0,0,1,8.19,8.16V101h39.39a4.22,4.22,0,0,0,4.22-4.2S99.75,56.71,91.09,41.14Z"></path><path d="M75.16,17.16A4.19,4.19,0,0,0,71,13H57.37a4.19,4.19,0,0,0-4.19,4.16V32.78h22Z"></path><path d="M101.81,49.66l-4-6.75c-.68-1.14-.66-4.09,0-6.54l2.22-7.81c.7-2.46,1.82-3.53,2.5-2.39l4,6.75c.68,1.14.66,4.09,0,6.54l-2.22,7.81C103.61,49.73,102.49,50.8,101.81,49.66Z"></path><path d="M112.28,68.4l-4-6.75c-.68-1.14-.66-4.09,0-6.54l2.22-7.81c.7-2.46,1.82-3.53,2.5-2.39l4,6.75c.68,1.14.66,4.09,0,6.54L114.78,66C114.08,68.46,113,69.54,112.28,68.4Z"></path><path d="M122.74,87.13l-4-6.75c-.68-1.14-.66-4.09,0-6.54L121,66c.7-2.46,1.82-3.53,2.5-2.39l4,6.75c.68,1.14.66,4.09,0,6.54l-2.22,7.81C124.54,87.2,123.42,88.27,122.74,87.13Z"></path><path d="M26.19,49.66l4-6.75c.68-1.14.66-4.09,0-6.54l-2.22-7.81c-.7-2.46-1.82-3.53-2.5-2.39l-4,6.75c-.68,1.14-.66,4.09,0,6.54l2.22,7.81C24.39,49.73,25.51,50.8,26.19,49.66Z"></path><path d="M15.72,68.4l4-6.75c.68-1.14.66-4.09,0-6.54l-2.22-7.81c-.7-2.46-1.82-3.53-2.5-2.39l-4,6.75c-.68,1.14-.66,4.09,0,6.54L13.22,66C13.92,68.46,15,69.54,15.72,68.4Z"></path><path d="M5.26,87.13l4-6.75c.68-1.14.66-4.09,0-6.54L7,66c-.7-2.46-1.82-3.53-2.5-2.39l-4,6.75c-.68,1.14-.66,4.09,0,6.54l2.22,7.81C3.46,87.2,4.58,88.27,5.26,87.13Z"></path><path d="M57.37,89a4.19,4.19,0,0,0-4.19,4.16V115h22V93.14A4.19,4.19,0,0,0,71,89Z"></path></svg>