<svg height='100px' width='100px'  fill="#001a80" xmlns="http://www.w3.org/2000/svg" xmlns:xlink="http://www.w3.org/1999/xlink" version="1.1" x="0px" y="0px" viewBox="0 5 100 90" enable-background="new 0 5 100 90" xml:space="preserve"><g display="none"><path display="inline" d="M50,32c9.9,0,18,8.1,18,18c0,9.9-8.1,18-18,18c-9.9,0-18-8.1-18-18C32,40.1,40.1,32,50,32 M50,14   c-19.9,0-36,16.1-36,36s16.1,36,36,36c19.9,0,36-16.1,36-36S69.9,14,50,14L50,14z"></path></g><g display="none"><path display="inline" d="M50.5,22c-19.9,0-36,11-36,24.7c0,6.5,3.7,12.3,9.6,16.7l-4,14.6l20.5-7.6c3.1,0.6,6.4,1,9.9,1   c19.9,0,36-11,36-24.7C86.4,33.1,70.3,22,50.5,22z"></path></g><g display="none"><rect x="15.2" y="32.1" transform="matrix(0.7071 0.7071 -0.7071 0.7071 47.1308 -19.5224)" display="inline" width="63.8" height="30"></rect><polygon display="inline" points="64.8,86 64.8,86 86,86 86,64.8 86,64.8  "></polygon></g><path d="M94.1,80.1L74.9,46.7L55.7,13.3c-2.5-4.4-8.9-4.4-11.4,0L25.1,46.7L5.9,80.1C3.4,84.5,6.5,90,11.6,90H50h38.4  C93.5,90,96.6,84.5,94.1,80.1z M50,79.3c-3.7,0-6.8-3-6.8-6.7c0-3.7,3-6.7,6.8-6.7c3.7,0,6.8,3,6.8,6.7C56.8,76.3,53.7,79.3,50,79.3  z M57.5,38.4l-3,24c-0.1,0.5-0.3,0.9-0.6,1.2c-1.1-0.7-2.4-1.2-3.8-1.2c-1.4,0-2.7,0.4-3.8,1.2c-0.3-0.4-0.6-0.8-0.6-1.2l-3-24  c-0.6-4.8,2.7-9.2,7.5-9.2S58.1,33.6,57.5,38.4z"></path></svg>