<?xml version="1.0" encoding="UTF-8"?>
<svg enable-background="new 0 0 427 587" viewBox="0 0 427 587" xmlns="http://www.w3.org/2000/svg">
 <path d="m298,169c3.077,2.176.578,10.583 0,17-.283,3.141.998,6.353-1,8v-9c1.216-4.451 1.087-10.247 1-16z" fill-rule="evenodd"/>
 <path d="m285,178c1.162-.163 1.779.221 2,1 .322,3.231-1.54,7.167-2,11-.499,4.159 2.027,10.286-2,12 1.662-7.004.557-16.776 2-24z" fill-rule="evenodd"/>
 <path d="m271,187c1.701-.368 1.887.78 2,2-2.251,6.427-.043,22.609-3,25-.331-9.664 1.772-16.894 1-27z" fill-rule="evenodd"/>
 <path d="m289,220c4.794.352-2.136,2.995-2,5-.204,3.129.675,7.341-1,9 .132,1.314.151,7.235-1,4-.755-6.088 1.599-9.068 1-15 1.889-.111.694-3.306 3-3z" fill-rule="evenodd"/>
 <path d="m256,225c-.717,2.616-3.263,3.404-4,6-.405,2.978.969,12.902-1,11v-13c1.995-1.005 1.578-4.422 5-4z" fill-rule="evenodd"/>
 <path d="m212,236c4.27,4.778 1.277,12.468 1,19-.608,14.333.456,30.77 0,46-2.589-3.312-1.068-8.985-1-14 .202-14.966-.151-35.136 0-51z" fill-rule="evenodd"/>
 <path d="m176,260c1.786,23.564 1.286,54.188 1,74-2.213-22.141-.498-53.474-1-74z" fill-rule="evenodd"/>
 <path d="m217,267c1.915,5.386.461,12.478 0,17-1.8-3.503-1.472-13.444 0-17z" fill-rule="evenodd"/>
 <path d="m216,298c2.235,9.163.402,32.324 1,47-2.235-9.163-.402-32.324-1-47z" fill-rule="evenodd"/>
 <path d="m212 302c2.058 9.457 1.089 28.542 0 35-1.706-9.382-1.611-25.604 0-35z" fill-rule="evenodd"/>
 <path d="m116 303c1.662 6.163 1.332 19.119 1 24-1.852-5.973-1.03-19.421-1-24z" fill-rule="evenodd"/>
 <path d="m94,333c4.671,1.329.101,11.899 3,15-4.11-1.89-1.007-10.993-3-15z" fill-rule="evenodd"/>
 <path d="m145,355c1.163-.162 1.779.221 2,1v20c0,16.418-.335-13.256-1-18-.045-.319-1.707-1.702-1-3z" fill-rule="evenodd"/>
 <path d="m215,386c1.163-.162 1.779.221 2,1-1.948,4.579 2.924,15.358-2,19v-20z" fill-rule="evenodd"/>
 <path d="m325,389c3.062,4.436-1.261,10.042 0,16-1.749,4.58-.745-9.557-1-13 1.172-.161.844-1.823 1-3z" fill-rule="evenodd"/>
 <path d="m275,423c3.044,4.765-1.241,19.74 0,29-3.282-5.354.633-19.738 0-29z" fill-rule="evenodd"/>
 <path d="m215 430c3.085 17.423-1.244 36.086 0 55-1.961-16.299-1.251-38.582 0-55z" fill-rule="evenodd"/>
 <path d="m125,452c.973.027.776,1.224 1,2-.651,5.349 1.313,13.313-1,17 .436-8.425-1.945-13.597 0-19z" fill-rule="evenodd"/>
 <path d="m243,490c3.104-.838-.257,32.689 0,10v-10z" fill-rule="evenodd"/>
 <path d="m104 494c1.463 2.968 1.727 16.811 2 24-2.543-6.124-1.952-15.381-2-24z" fill-rule="evenodd"/>
 <path d="m272,511c-3.549-2.14-.619-12.627 0-17v17z" fill-rule="evenodd"/>
 <path d="m214,507c2.198,1.158.432,14.884 1,21-2.198-1.158-.432-14.884-1-21z" fill-rule="evenodd"/>
 <path d="m244,18c1.47,6.864 1.575,15.092 2,23 24.812,4.155 51.178,5.668 79,13 7.921,2.087 16.249,4.361 24,7 14.226,4.844 28.046,5.103 31,20 12.379,3.621 17.787,14.213 19,29 1.139,3.861 8.655,1.345 9,6-1.364,3.971 1.93,5.103 2,8 .136,5.603-5.818,13.111-11,16-8.057,4.492-20.107.88-26,6-12.915,105.895-22.163,225.007-34,337-.786,7.435-.628,15.292-2,22-.416,2.033-2.266,3.826-3,6-2.351,6.953-1.849,15.559-5,22-3.656,7.473-11.261,16.123-17,20-26.099,17.631-74.126,31.869-113,31-25.755-.576-54.868-6.516-78-16-17.72-7.265-35.623-18.622-45-33-4.555-6.983-6.334-18.188-11-28-9.194-121.712-19.231-241.159-31-364-9.82-4.777-16.03-9.877-21-22-3.025-7.377-4.95-10.751-2-18 .814-2.002 3.016-2.323 4-4 1.794-3.057 2.846-7.635 5-10 2.74-3.009 8.017-3.621 11-7 3.519-3.985 4.691-11.323 8-14 5.321-4.304 17.949-7.913 28-11 27.391-8.412 67.708-14.404 98-16 2.856-12.962-2.113-26.188 12-29 8.196-1.633 23.932,1.469 36,2 12.387.544 24.516-1.764 31,4zm-69-3c-.61.057-1.184.149-1,1 13.07.357 41.715,3.049 60,1-17.945-1.807-42.279-2.271-59-2zm-2,3c-1.182.485-2.267,1.066-3,2-2.111,8.222-1.165,19.501-3,28 28.229-.547 47.729-2.982 71,3-.013-8.408.838-20.757-1-30-19.975-3.921-43.828-1.313-64-3zm31,96c14.258-.075 29.141.474 42-1-2.872-11.397-10.278-21.518-17-32-6.797-10.6-13.842-21.381-21-31-1.003.003-1.19-.81-2-1-1.48,20.212-4.037,44.595-2,65zm-48-3c14.841,2.7 26.583,2.395 43,3 .114-22.712 3.82-45.328 1-64-15.483,19.517-31.809,38.191-44,61zm95,1c12.253.253 22.065-1.935 33-3-18.132-24.535-45.467-45.199-72-58 15.389,17.944 28.889,37.778 39,61zm-124-13c-2.465,2.078-8.111,3.47-7,8 11.134.532 20.437,2.897 31,4 4.075-5.592 8.567-10.767 11-18 6.546-5.299 10.715-14.056 16-21 5.564-7.312 13.26-13.135 15-21-22.217,14.895-46.711,31.738-66,48zm6-45c4.226-3.289.026-1.007-1-1-20.62.136-53.873,6.09-75,12-7.883,2.205-16.713,4.59-17,13 28.945-10.055 59.53-18.47 93-24zm-22,32c-7.682,4.117-16.268,7.598-22,14 9.012,1.322 16.9,3.767 26,5 15.978-14.212 35.44-28.225 53-40 5.843-3.918 12.605-7.504 16-13-24.466,11.304-50.538,21.962-73,34zm181,22c8.826-2.841 20.693-2.64 28-7-27.292-20.374-60.078-35.256-94-49-1.177.157-2.839-.172-3,1 26.726,14.607 48.179,34.488 69,55zm51-34c8.67,3.273 16.385,7.921 25,9 2.189-11.292-11.655-11.604-19-14-27.198-8.873-62.498-16.925-92-16 29.983,5.618 60.381,11.328 86,21zm-174-20c-27.952,7.806-54.685,17.985-78,28-8.756,3.761-18.127,6.356-24,12 5.655-.277 10.908,4.833 17,4 2.8-.383 6.037-3.646 10-6 24.315-14.444 53.236-26.545 77-38h-2zm167,7c10.176,2.416 19.657,8.093 29,8-17.508-6.828-38.819-15.178-61-14 11.031,1.568 21.558,3.521 32,6zm-82-5c23.041,7.035 52.646,16.269 76,26 12.698,5.291 26.662,18.412 34,4-31.803-13.624-76.069-26.183-110-30zm-180,23c-7.547,2.731-15.912,5.024-21,11 4.195-.528 5.586,1.747 9,2 27.306-13.694 56.736-25.264 88-35-28.108,4.574-52.864,13.628-76,22zm47-20c-23.842,6.158-50.318,9.681-70,20-4.664-.664-6.424,1.576-10,2 4.96,12.236 14.903,1.493 24-2 18.832-7.229 42.719-13.698 58-20h-2zm205,42c7.381-1.286 13.006-4.327 21-5-4.758-6.45-13.868-7.758-21-11-7.683-3.492-15.27-5.987-23-9-15.515-6.046-30.892-13.786-47-15 25.727,10.939 49.685,23.648 70,40zm38-8c9.941,1.769 6.634-14.063 12-11-2.258-1.742-.654-7.346-4-8 2.058,7.558-2.799,15.506-8,19zm-295,11c-1.953-1.714-5.596-1.737-8-3-1.119,3.214-2.737,5.93-3,10 2.386.964 6.406,3.3 9,1-.331-3.664 1.11-5.556 2-8zm8,13c1.867-2.133 1.357-6.643 4-8 .57,3.92-3.469,6.237-1,9 32.064,7.603 66.262,13.071 103,16-53.488-.185-102.126-13.869-146-27-6.217-3.958-8.909-13.892-8-22-3.801,4.291-7.838,3.677-9,9-3.341,15.308 13.897,16.747 26,21 9.851,3.461 19.894,6.342 25,7 2.541,1.875.459,2.125 3,4 3.769.769 4.78-1.22 8-1 49.203,14.398 120.928,19.703 171,14 4.453,5.135 18.498-.912 23-2 15.212-3.676 36.247-6.117 56-11 8.787-2.172 17.714-4.6 26-7 18.893-5.472 37.764-8.47 32-29-2.793-.612-8.137-7.972-9-4 3.113,12.443-.661,19.57-9,24-11.829,6.284-33.647,9.166-56,14-20.421,4.416-41.95,8.867-61,10-23.301,1.386-48.483,4.213-71,0 34.878.502 62.208-.417 93-4 .347-2.759-2.871-7.022 0-9 .042,3.292 1.688,4.979 1,9 3.671-.663 7.603-1.064 11-2-.408-2.004-2.477-7.417 0-9-.061,3.727 1.009,6.325 2,9 7.991-2.799 14.296-1.092 21-5-.841-2.492-1.309-5.357-1-9-4.449-.783-6.002,1.332-10,1-.619,2.714 1.27,7.936-1,9-.198-3.469.354-7.687-3-8-70.611,13.523-165.396,7.102-227-12-3.812,7.965-2.553,12.298 7,13zm-42-15c4.047.347 5.727-8.794 2-10 .144,4-4.417,6.853-2,10zm3,2c1.987.013 1.271,2.729 4,2 .75-3.25 1.811-6.189 3-9-1.987-.013-1.271-2.729-4-2-.325,3.675-2.467,5.533-3,9zm5,3c3.059-.725 2.941,1.725 6,1-.245-4.245 2.616-5.384 2-10-1.742.075-3.11-.223-4-1-1.377,3.29-2.973,6.36-4,10zm329,1c-.604-3.729.427-9.093-3-10 .604,3.729-.427,9.093 3,10zm-322,1c1.289,1.378 4.344.99 7,1 .084-3.583 1.555-5.778 2-9-1.869-.798-3.663-1.671-6-2-1.498,2.836-2.085,6.582-3,10zm316,1c3.018-.497 1.446-9.747-1-11-3.004,1.005-3.306,11.23 1,11zm-6,2c2.256-2.323.917-9.534-1-11-3.223,1.224-2.818,10.743 1,11zm-9,2h4c1.51-2.75.324-9.91-3-11-4.01,1.853-.799,7.051-1,11zm-8,2c2.465.132 4.818.151 6-1-.2-3.799-.885-7.115-2-10-7.372-.215-3.605,5.394-4,11zm-9-8c-.722,1.452-.257,8.4 1,11 2.275-.724 5.108-.892 7-2 .332-3.999-1.782-5.551-1-10-3.469-.802-3.844,1.489-7,1zm-10,3c.271,3.395-.774,8.107 1,10 3.664.331 5.557-1.11 8-2 .238-4.239-.919-7.081-2-10-2.275.724-5.108.892-7,2zm-11,2c-1.057,4.071.281,4.737 0,10 4.238.239 7.081-.919 10-2 .763-7.42-2.083-12.175-10-8zm-293,13c.473-3.525 4.732-12.813 1-14 .179,4.546-3.564,10.39-1,14zm370,0c5.362-.168 2.128-11.972 0-14-1.93,4.024.943,8.062 0,14zm-368,4c5.58-.967 4.926-12.781 5-16-1.278-.055-1.385-1.282-3-1-.179,6.154-2.754,9.913-2,17zm374-12c4.402,1.427 6.274.398 8-3-3.165-2.665-7.038.366-8,3zm-367,15c2.999-3.233 4.429-12.586 3-17h-3c.024,5.324-5.62,15.332 0,17zm359-2c-.372-5.628 1.05-13.05-3-15 .298,5.702-.313,12.314 3,15zm-351,5c2.56-4.44 2.624-11.376 4-17-2.348-.319-3.753-1.58-7-1 .772,6.748-6.305,17.276 3,18zm346-1c1.463-4.447 1.036-14.804-3-17 .607,6.059-.055,13.389 3,17zm-344,1c2.162.838 3.411,2.589 7,2 .2-6.134 3.063-9.604 3-16-2.162-.838-3.411-2.589-7-2-.483,5.85-1.683,10.984-3,16zm340,1c-.049-6.285-.96-11.707-2-17h-3c2.219,5.115-.619,15.286 5,17zm15-15c3.155,1.178 1.771,6.896 6,7 .939-3.954.78-5.798-1-9-2.48-.147-4.853-.186-5,2zm-22,18c2.669-3.346 1.934-16.98-3-19-1.36,4.963-.501,15.637 3,19zm-325-1c2.675.992 5.273,2.061 9,2 .148-5.519 1.46-9.874 3-14 .771,6.437-2.502,8.832-2,15 3.222.445 5.417,1.916 9,2 .443-1.89-1.36-6.027 2-5-1.368,1.278-1.368,4.722 0,6 17.581,5.086 37.179,8.154 56,12 1.928-1.738.389-6.944 4-7 9.434-.767 14.566,2.767 24,2v5c13.048,6.627 30.285,6.396 47,7 30.559,1.105 64.898-2.556 92-7-1.646-.136-1.646-6.864 0-7 .319,2.348 1.58,3.753 1,7 5.118.785 7.264-1.402 12-1-1.026-5.307-2.222-10.445-2-17-20.88,1.936-38.24,5.513-57,7-10.245.812-24.397-2.755-31,1-12.298-3.139-27.537.063-41-1-26.046-2.057-50.211-5.389-74-11-7.75-1.828-17.1-2.34-24-5-.803-.31-2.033-2.75-3-3-3.504-.908-8.093.107-12-1-2.958-.838-4.757-3.187-8-3h-2c.49,6.823-2.767,9.9-3,16zm317,3c.15-1.85 3.387-.614 4-2-.738-5.596-1.869-10.798-2-17-8.819-.916-3.866,15.364-2,19zm-8,2c7.907-.659 2.197-12.275 3-18h-4c-1.619,4.3.075,13.005 1,18zm-10-15c2.528,4.472-1.18,15.18 4,17 6.142-1.801 1.658-12.692 2-18-2.465-.132-4.818-.151-6,1zm-8,1c-.626,3.853-.059,12.756 1,18 3.589.589 4.838-1.162 7-2-1.854-6.932 2.264-18.798-8-16zm-11,4c1.721,4.279.434,11.567 2,16 3.769.769 4.78-1.22 8-1-1.244-5.089-.441-12.226-2-17-3.664-.331-5.557,1.11-8,2zm-11,3c1.199,4.468.296,11.037 2,15 1.329,1.035 6.688.037 9-1-.272-6.061-.637-12.03-2-17-4.29-.291-6.607,1.392-9,3zm68,4c5.312,2.193 9.088-6.288 5-7-.134,3.866-4.056,3.944-5,7zm-81-2c1.595,5.405-.429,14.429 4,17 1.511-2.489 6.748-1.252 9-3 .321-6.321-2.568-9.432-2-16-4.367-.034-7.798.868-11,2zm-260,49c-.064-.286 1.106,6.354 3,3-3.138-14.604-3.138-30.299-4-45-.211-1.122-1.11-1.557-2-2 2.617,13.024.397,32.368 3,44zm5-42c-2.564,10.823 4.439,32.479 0,39 .059-7.748-.478-15.346-1-22-.412-5.254.782-14.75-4-18 1.181,11.097 1.664,24.814 3,35 .438,3.336-.55,8.537 3,10-.109-2.488-1.874-3.096 0-5 2.2,1.467-.385,7.719 5,6-.249-6.055-2.48-14.554 0-22 .902,12.395-1.17,22.963 6,30-.275-7.64-1.777-16.98-1-24 1.815,8.689 1.512,14.078 2,23 1.419,1.675 4.213-3.73 9-2 4.901,3.432 9.347,7.32 9,16 3.875.542.865-5.802 4-6 8.304-9.834 20.237,2.987 22,13 3.476,19.74-1.495,54.263 4,68 .254-10.562-1.47-20.847-2-33-.701-16.054-3.835-43.823 10-45 21.754-1.851 15.406,33.514 17,53 4.363,53.328 3.858,112.499 6,160 2.784-.45-.784,5.45 2,5-2.569-54.136-2.421-124.221-5-181-.629-13.861-2.499-28.217 8-31 19.02-5.042 21.53,12.974 22,27 1.038,30.969 1.334,64.174 2,98 .605,30.766 1.351,62.964 2,89 .176,7.065-2.58,13.281 1,19-1.531-59.725-.635-142.482-2-203-.328-14.542 1.509-27.928 16-28 11.932-.06 15.949,9.598 17,19 2.231,19.952 0,43.73 0,67 0,92.443.221,182.97-1,261 3.736-.756 1.913-5.781 2-8 .988-25.236.264-57.021 1-79 2.148-64.105 1-141.803 1-201 0-24.458-4.542-62.691 21-59 16.861,2.437 12.933,33.465 12,54-2.853,62.808-3.267,137.752-5,193v4 5 10c2.27-1.063.381-6.286 1-9v-10c3.271-59.675 4.229-153.952 7-217 .304-6.899-.936-12.712 0-18 1.76-9.95 12.069-15.297 23-14 11.178,5.949 6.802,23.833 6,42-2.18,49.404-3.984,96.621-6,141-.4,8.821-2.872,16.94 0,25 1.846-45.728 5.806-101.079 8-151 1.029-23.422-2.056-51.846 11-61-1.641.164-1.641-6.164 0-6 1.867,1.778-.812,2.542 0,6 3.83-2.17 11.243-.757 13-5 .289,5.254 5.278,8.709 6,14 .656,4.81-1.693,11.024-2,17-2.293,44.698-6.852,92.581-7,133 2.689-35.948 6.261-85.547 9-124 .834-11.705.227-26.507 4-34 2.163-4.295 8.979-6.406 11-11-.749-14.807 2.927-30.329 2-42-2.288,1.045-6.032.635-8,2-2.132,13-1.374,37.196-6,51 .664-16.673 4.818-35.178 3-51-4.209,1.458-10.147,1.186-10,7 .351-6.848-6.526-4.46-11-3-2.933,1.4.933,9.6-2,11-3.223-2.679 3.061-9.495-2-11-34.328,5.719-77.099,5.893-116,4-2.864.136.864,6.864-2,7-4.468-2.374-8.238.768-14,0-4.587-1.413-5.881-6.119-13-5-2.231-3.437-.699,5.207-5,3-4.729.395-8.346-.321-12-1-1.483-1.184-1.556-3.777-3-5-1.407-2.863 3.103-5.458-1-5-16.87-4.13-35.399-6.601-51-12-2.111,3.815 1.51,9.072-1,12-2.203-5.131.151-14.818-8-14-1.197,10.375 3.3,18.741 0,25 .654-4.042-.633-8.942-1-13-.428-4.734 2.841-12.629-4-13-2.366,3.256 2.634,16.574-1,20-1.598-10.284 1.96-15.432-4-22zm309,44c2.476.403 2.749-3.699 3-5 2.119-10.962.354-25.332 3-34-.224-.776-.027-1.973-1-2-3.41,11.923-2.94,27.726-5,41zm-5,1c2.793-2.047 3.462-7.117 4-11 1.199-8.656.527-19.552 2-28-.221-.779-.838-1.163-2-1-.741,13.925-1.773,27.561-4,40zm-4,10c3.646-14.021 4.081-31.252 5-48 1.052-.055.787-1.282-1-1-1.824,15.18-5.332,33.997-4,49zm-6-4c3.837.068 3.551-6.117 4-9 1.825-11.704.901-25.476 3-35h-3c-2.165,13.835-3.503,28.497-4,44zm-7,2c3.314.297 4.413-3.916 5-6 2.99-10.623.316-27.573 3-39h-3c-3.042,13.625-2.96,30.374-5,45zm-208-37c5.527,1.139 11.718,1.616 17,3 1.583-11.928-9.208-5.913-17-9v6zm206-6c-.239,1.427-1.646,1.687-2,3-2.062,46.684-7.919,91.335-8,138 3.364-27.271 2.909-55.772 6-83 .562-4.954 3.309-10.053 4-15 1.51-10.798 2.131-23.159 3-33 .246-2.78 2.269-8.129-1-10h-2zm-10,2c-3.131,13.339-2.299,32.052-4,44 2.239,1.094 5.011,1.656 7,3 1.119-15.881 1.841-32.159 4-47h-7zm-279,73c6.333,78.266 13.015,156.431 20,238 1.131,13.207 1.323,27.048 5,40-2.417-49.834-7.377-104.507-12-158-4.615-53.397-9.788-107.598-14-160-1.427-.239-1.687-1.646-3-2 1.166,12.873 2.838,27.64 4,42zm303,117c-5.377,53.337-10.377,106.914-14,159 11.222-104.113 22.949-213.05 31-317-6.332,51.692-11.632,104.746-17,158zm-282,61c2.231.147-1.298,2.52 0,5 1.464,2.32 3.169-1.953 3,2-.012,1.321-1.752.914-2,2 4.251-.191 1.137,6.268 1,8 1.22.113 2.368.299 2,2-1.119,4.715.298,6.106-1,11 4.528,3.646.852,21.179 4,26-1.593.087-1.881.334-2,2-.47,6.606 2.165,16.502 4,22-2.934,1.98-1.551,7.081 1,9-2.946,2.413.956,7.719 1,13 .028,3.427-3.837,7.67 0,10 .17-1.496-.357-3.69 1-4-.907,6.241 3.221,7.445 6,10-5.839-67.84-10.88-148.896-16-211-2.59-31.423-5.816-64.843-8-96-.668-9.531 1.07-22.685-9-27 3.07,4.994-2.491,5.741-3,10 .111,3.542 3.306-2.125 3,1-1.785,1.896-2.795,5.525 0,2-1.596,8.841-2.492,22.247 1,28 .609-2.391-1.255-7.255 1-8v11c-3.057-2.213-2.454,6.712 0,7 .547-1.453-1.168-5.168 1-5 .583,8.184-4.794,11.03 0,18 .157-1.177-.172-2.838 1-3 1.261,6.013-5.078,10.171 0,14 .547-1.453-1.168-5.168 1-5-.591,4.257.719,6.614 1,10-2.182.637-3.182-2.834-3,1 .111,3.542 3.306-2.125 3,1-.595,2.072 1.236,6.569-1,7 .299-1.625-1.35-2.697-2-1 2.196,7.065 1.762,10.77 2,20 1.44,2.213 2.44-1.259 3,1 .14,2.874-2.779,7.798 0,10 .17-1.496-.357-3.69 1-4-1.061,4.685-2.707,22.872 1,15-1.665,6.76-3.249,9.379 1,15-.826,2.513-3.181,7.182 0,12 .88-3.537-2.569-5.152 1-6v10c-1.003.003-1.19-.81-2-1 1.503,4.106-.296,18.242 4,19-.171,2.59.86,7.953-2,5 4.323,4.011 3.048,13.618 4,21-3.66-3.091-1.747,6.395 0,7 .575-1.758-1.208-5.875 1-6-.099,4.459.81,11.03-2,10zm261,101c5.517-4.978 1.837-13.733 2-21 .215-9.568 2.874-19.858 4-30 3.183-28.668 4.333-54.525 7-81 2.078,1.119 2.119,1.078 1-1 .592-19.435 3.696-36.97 4-54 4.66-6.041 4.906-15.818 5-24 .136-11.881-.048-21.395 1-32 .698-7.071 1.153-15.616 4-20-2.858-9.556.051-15.312 0-25 2.251-.395-.149-6.239 3-3-2.286-11.096 1.702-17.563 0-26-11.617,8.621-8.734,27.799-10,43-7.834,94.074-17.517,193.809-26,287 5.745-.255 5.196-6.804 5-13zm-241-39c-.499-2.203-1.609,5.512 1,7 .17-1.496-.357-3.69 1-4 1.095,6.265-3.631,6.272 0,10-2.976-.365-2.089,6.634 1,6-1.39,7.396 3.648,15.001-1,22 1.444,2.382 1.517,2.454 3,3-1.764,1.736-1.286,9.523 0,15 .575-1.758-1.208-5.875 1-6v10c2.284.449 5.052,5.525 7,3-1.394-21.938-3.935-44.101-5-67-3.468-74.539-10.274-152.91-14-233-.809-17.379 1.162-35.302-11-39-1.536,2.797.123,8.79-5,8 3.981,12.238 4.068,23.753 2,30 .309,2.358 3.473,1.86 3,5 .646,28.864 5.646,54.846 4,76 1.22.113 2.368.299 2,2-.712,11.379 2.712,18.621 2,30-3.602,1.139-.336,9.096 1,3 .948,24.753 3.521,50.002 4,74 2.385,2.939 2.895,9.883 3,16 .08,4.635-2.113,10.524-2,11 .705,2.979 2.825-2.189 3,2 .122,2.908-1.694,2.88-2,5 .007-.049 2.263.267 2,2-.196,1.294-1.611.936-2,2 4.463-2.051 3.578,6.315 2,7zm229,60c.221.779.838,1.163 2,1 4.126-34.482 4.626-69.32 8-104 7.14-73.383 14.154-147.799 18-222-1.214,1.786-.183,5.817-2,7-1.863-6.568 3.319-10.168 1-14-11.299,5.58-9.87,17.133-11,35-6.336,100.172-17.074,204.681-23,302 12.718-4.282 4.069-29.931 10-41-.164,12.836-1.322,24.678-3,36zm-223-321c-2.081,2.19-3.232-.877-5,1 1.207,4.207-1.615,4.385-2,7 4.294.556-2.898,8.755 2,13-1.323-2.506 4.656-2.428 1-4 .242,1.738.342-13.192 2-14v19c-3.492-2.762-1.019,7.125-4,8 4.708-1.063-2.021,3.75 3,3 2.889-.444-.889-7.556 2-8 .271,3.396-.774,8.107 1,10-1.427.39-1.687,1.2-3,0 .943,5.39-2.116,14.783 2,17 1.218-3.63-2-7.895 0-9 2.289,1.711.367,7.633 1,11-2.506-.172-2.428,2.239-4,3 5.7,1.89-1.512,16.952 3,15 1.236,3.236-3.236.764-2,4 3.924,3.366 1.259,12.603 2,15 2.725-.838-.375,13.958 1,15 .895-3.389 2.816,8.733-1,7 4.671,9.406 2.99,22.599 2,33 .776.224 1.973.027 2,1-1.576,13.217 5.318,30.666 0,38 3.353.053 5.064,11.044 1,12 3.552,2.906-.33,5.066 1,7 3.003.299-.657,12.774 4,16 .157-1.177-.172-2.839 1-3v5c-3.006-3.021-1.174,3.901-4,4 5.383.95-1.284,13.95 4,15 .547-1.453-1.168-5.169 1-5-.132,2.465-.151,4.818 1,6-3.059.046-2.542,1.609-5,4 5.305-1.203-.072,3.037 0,4 .004.052 1.854.324 2,1 .256,1.186-1.269,3.01-1,5 .073.538 1.756,1.369 2,3 .98,6.551 1.57,21.328 1,24-.13.609-2.061-.301-2,1 .007.146 1.9.173 2,1 1.717,14.181 1.422,30.478 2,46 2.849-1.203 13.598,9.715 12,3-.224.775-.027,1.973-1,2-1.151-1.182-1.132-3.535-1-6 1.376-.043 2.196.471 3,1-.653-3.714-.799-8.528-3-8 1.129-1.204 2.854-1.812 2-5-5.882-2.781 4.634-11.554-2-15-.157,1.177.172,2.839-1,3 1.426-8.59-1.043-17.811 0-25-.299,1.625 1.35,2.697 2,1-2.125-2.574-.424-7.09-3-2 1.702-9.938-1.612-17.038-1-22 .06-.486 2.037.198 2-1 .004.131-1.869-.504-2-1-.383-1.448 1.22-3.078 1-6-.147-1.953-2.301-7.955-2-14 1.003-.003 1.19.81 2,1-3.121-6.389-1.977-16.498-2-23 .157,1.177-.172,2.839 1,3-.963-10.547.657-22.878-2-30 .227.608-.388,2.107-1,2-.906-5.286 2.909-11.305-1-11 4.743-11.166-3.405-19.071 0-29-.299,1.625 1.35,2.697 2,1-5.268-6.891-2.357-16.754-5-27 1.376-.043 2.196.471 3,1-.723-3.056 1.022-3.645 1-6-5.507-3.691 1.823-14.059-4-17 1.464-.869 3.169-1.497 3-4-7.902-3.06-2.645-13.343-3-20 .002.035-1.86-.409-2-1-.914-3.849.708-9.204 0-13 2.052,1.146 4.767-1.57 2-2-2.315.401-2.155-4.298-3-9 1.257.219 2.044,1.557 2-1-.239-1.875-1.646.567-2-1 1.966-8.461 2.455-19.365-1-29 3.944.611 1.176-5.49 2-8-3.363-.384-5.605-6.551-2-8-1.147-1.614-3.926-3.167-2-5-1.646-1.76-9.374-6.734-9-4 3.008-1.008 1.772,2.228 2,4zm210,110c.001.025 1.861,1.376 2,2 .864,3.891-.71,10.409 0,13-6.045-1.701 2.309,8.309-2,13-.239-1.086-1.646-2.401-2-1 .964,3.609 3.734,10.792 1,19-.204-1.891.675-9.88-1-7 1.41,3.822-2.612,7.281 0,9-.003-.556.81-1.135 1,0-.046,10.333-.954,13.667-1,24-1.003.003-1.19-.81-2-1 1.801,4.532.71,11.957 1,18-1.158-2.437-4.71,1.115-2,2 .239-1.534 1.646-.146 2,1-2.255.745-.391,5.609-1,8-2.182.638-3.182-2.834-3,1-.857,4.636 1.574,1.048 2,3-.316,7.107.627,19.636-3,21 1.119,2.394 2.466,18.422-1,13 .998,4.488 2.723,16.136-1,19 2.727.206 1.874,10.174-1,11 3.99,12.796-2.933,30.408-1,45-1.257-.22-2.044-1.558-2,1 1.684,4.15 1.142,4.667 1,11 5.048-.285 8.67-1.997 13-3-.343-12.698 1.197-14.42-1-22 .395-.252 1.951,1.121 2,1 1.88-4.606 1.882-21.205 0-24 .091-1.576 2.551-.783 2-3-1.129-1.204-2.854-1.812-2-5 1.003-.003 1.19.81 2,1-1.043-5.15-2.51-8.897 0-14 .547,1.453-1.169,5.169 1,5 1.739-4.954 1.743-12.897-2-13 6.467-5.654 3.77-19.257 3-25-.472-3.52.645-14.954 3-14-2.102-2.92-2.482-10.889-1-17 .275-1.135 1.933-1.03 2-2 .415-5.963-2.239-10.267-1-15 .034-.132 1.98.126 2,0 .943-6.228-.746-6.735-1-11 4.021-3.381-.822-10.42 3-14-.459-2.382-3.199-11.432 1-12-4.734-7.809 5.504-16.975 1-27 .003.556-.81,1.135-1,0 .387-14.771 3.582-17.264 2-32 1.576-.091.783-2.551 3-2-.305-6.305.158-11.842 1-17-2.151-.849-2.318-3.682-2-7 1.44,1.119 2.44,1.078 3-1-6.036-.243 2.586-4.267-1-5-1.047.608-3.17-16.251 2-16-2.784-2.881-2.32-7.15 1-9-5.37-4.546.74-16.627-1-25 5.09-3.264-1.332-9.418 0-12-15.803,5.897-11.347,26.189-14,45-.011-1.466.378-8.183-1-5-.773,6.132 3.049,12.918 0,18-.595-2.072 1.236-6.569-1-7-3.774,8.818 3.9,11.514 0,22-.271-2.141.774-10.668-1-8 .938,6.209-2.845,10.529 2,10-3.323,2.01 2.434,13.101-4,12-1.049,12.276 3.317,18.389 0,29 1.205-10.455-2.117-6.873-2-1zm-31,76c-1.021,6.252 1.646,3.023 3,6-3.485,46.036-4.944,100.447-8,150 8.299.966 1.18-13.487 5-17v16h8c1.055-1.039 2.065-7.141 0-8-.547,1.453 1.169,5.169-1,5-1.552-8.11 6.328-18.627 1-21 3.236-3.736-2.375-6.66 1-12-.437,1.663.139,7.23 1,6 2.736-3.911-1.397-16.938-1-23h3v-5c-2.994,1.071-1.791-6.441-2-11 1.377-.043 2.196.471 3,1-2.066-7.432-.18-10.526-2-15 1.427.39 1.687,1.2 3,0-1.152-19.899 2.554-34.547 3-53-1.177-.156-2.839.172-3-1 2.05-4.408.445-4.291 4-4-2.846-6.522.184-12.11-2-19-.396-2.396 4.555.555 3-3-3.062-1.827-.408-10.688-1-16 .171,1.496-.357,3.69 1,4 1.771-10.338 2.761-22.478 0-32 2.747,2.453 2.591-4.06 3-7-1.122-.862-3.378-7.387-1-13 .171,1.496-.357,3.69 1,4 1.89-5.376.013-9.463-1-11 6.835-6.482.609-26.792 3-35 .156,1.177-.172,2.838 1,3 3.522-5.666-2.467-11.186 0-17 .156,1.177-.172,2.838 1,3 1.916-2.417.631-8.036 1-12-4.563-1.23.093,6.76-3,7-1.166-12.241 1.594-11.513 4-18 .306-3.125-2.889,2.542-3-1 3.326-3.34-1.988-15.322 3-17-.938.845-2.136,6.375 0,7 2.229-6.826-.604-11.779 0-16-.156,1.177.172,2.838-1,3-.997-4.331 1.117-5.55 2-8-2.948-3.499-2.908-2.584-5-5-2.887,2.113-6.884,3.116-9,6 2.494.712 4.109-4.401 6-1-16.193,6.473-7.307,38.027-12,56-.013-1.531-2.729-3.287-2,0 .294,2.084 2.706-1.484 3,2-3.351,3.316 2.628,15.961-4,16-.473,4.118 2.691-.962 3,3-1.367,4.299-.062,11.271-2,15-3.372-2.818 2.289-8.454-1-11-.837,9.172-3.257,22.064-1,31 .171-1.496-.357-3.69 1-4 1.556,10.981-1.085,26.18-2,38-1.387-.613-.15-3.85-2-4-1.021,6.252 1.646,3.023 3,6-1.367,4.299-.062,11.271-2,15-1.651-.016-.56-2.773-2-3-1.021,6.252 1.646,3.023 3,6-.888,5.779-.29,13.043-2,18-1.387-.614-.15-3.85-2-4zm-137-63c-.575,1.758 1.208,5.875-1,6 .638-3.695-1.295-9.962 1-12 .17,1.496-.357,3.69 1,4-.516-4.994 1.747-20.95-2-26-.609,2.391 1.255,7.255-1,8 .46-5.576-1.329-28.973 2-17-.943-5.39 2.116-14.783-2-17-.595,2.072 1.236,6.569-1,7 1.704-2.03-2.645-8.464 1-11-.551.384.918,2.35 1,2 1.47-6.252-.112-8.367-2-4 .595-2.072-1.236-6.569 1-7 .157,1.177-.172,2.838 1,3-.907-5.093 2.062-14.062-2-16-.609,2.391 1.255,7.255-1,8 1.38-11.133 2.556-24.904 2-35-4.91-.244.347,9.68-3,11 .903-7.205-1.533-14.239 0-19-3.758-1.09-3.368-2.527-4-5-2.775,1.263-12.699.583-10,4 1.091-2.38 4.909-2.38 6,0-6.938-2.588-5.602,7.464-8,1-.816,4.542-2.244,13.723 0,18 .095-1.571-.134-3.467 2-3 .017,9.596.379,15.998 1,23-1.464,2.32-3.169-1.954-3,2 .157,1.177-.172,2.838 1,3-.729-1.635 1.987-4.35 2-2-.096,12.56 1.501,23.603 1,34-2.427-.573.469-6.469-3-6-.771,4.367 2.702,7.798 0,11 3.555,1.555.604-3.396 3-3 2.449,2.292.332,9.081-2,4-.782,8.444.59,17.187 1,26 .382,8.213-1.927,17.615 2,24 1.109-6.384-2.015-17.135 1-19-.034,7.7-.301,15.634 1,22-1.464,2.32-3.169-1.953-3,2 5.747.925 1.346,17.053 4,24-1.464,2.32-3.169-1.953-3,2 6.208-.288 1.055,16.959 4,23-2.182.638-3.182-2.834-3,1-.473,4.299 2.691,1.279 3,3 .373,6.96-.922,15.588 1,21-2.182.638-3.182-2.834-3,1v2c-.306,3.125 2.889-2.542 3,1-.17,1.496.357,3.69-1,4-.095-1.571.134-3.468-2-3v6c1.72.395 2.563-1.484 3,0 .197,10.673.412,16.606 1,23-1.464,2.32-3.169-1.953-3,2 1.352,2.427 1.999.623 3,2-.826,9.898 2.896,21.532-2,23 4.654,2.087 3.735,23.009 2,28 .893.203 1.827.054 2,1 1.661,9.078-.536,21.957 1,32 5.615,1.385 11.802,2.198 16,5 2.347-5.124-1.882-1.619-2-5-.296-2.63 3.88-.787 3-4-.944-1.723-3.696-1.637-3-5 1.257.22 2.044,1.558 2-1-.239-1.875-1.646.567-2-1-1.448-3.781 2.748-1.919 2-5 .745-3.078-2.745-1.922-2-5 5.952-6.354-5.618-13.64 1-22-1.697-.97-2.569-2.764-2-6 1.257.22 2.044,1.558 2-1-3.513-1.815-.988-3.445 0-6-1.72-.395-2.563,1.484-3,0-2.179-6.441 4.787-20.344 0-14v-6c1.003-.003 1.19.81 2,1 .571-4.951-.422-13.792-3-7-2.121-7.81 3.617-13.02 1-18-.547,1.453 1.168,5.169-1,5v-7c1.257.22 2.044,1.558 2-1-4.428-2.862 3.21-6.256-2-9-.17,1.496.357,3.69-1,4-2.339-6.204 4.546-18.144 0-14 .036-3.48-.561-9.514 2-5-.811-7.562 2.169-13.73-1-17-.485,1.182-1.066,2.267-2,3 1.311-4.368-2.221-9.035 0-11 2.715-.716-.715,4.716 2,4-.801-3.431 2.234-18.73-2-22-.627,3.039 1.28,8.613-1,10-.641-11.839 5.685-26.711 0-37-.654,6.013 1.317,14.65-1,19-1.476-16.734 4.492-29.035 0-39zm129-115c-1.812.22-6.52,6.123-11,7-4.775,7.558-.984,23.683-5,32 2.646,5.876 1.452,11.574 1,18-1.596,22.682.861,53.201-2,76-.365,2.912-1.915,5.955-2,9-.088,3.146 1.734,4.707 2,8 .598,7.397-2.552,15.765-1,23-.013,2.806-2.729-2.381-2,2 1.41,6.505 1.452,13.177 1,19-.541,6.973 2.19,19.034-2,21 1.314,3.709 1.893,17.646 1,25-.189,1.56.205,3.476-2,3 4.037,19.395-1.132,45.94 0,69-.013,2.806-2.729-2.381-2,2-.961,11.864 2.811,16.317 1,27 5.552-.115 9.204-2.13 15-2 .751-4.599-5.557-5.058-1-8 .17,1.496-.357,3.69 1,4 .263-9.222-.893-21.188 1-25 4.562-9.186-1.848-22.981 2-35 .396-2.396-4.555.555-3-3 .387-5.871.777-6.557 3-9 1.898-36.046 4.652-86.01 6-129 .748-3.081-3.447-1.219-2-5 1.001-1.377 1.648.427 3-2 .613-34.662 3.479-61.257 4-93 .748-3.081-3.447-1.219-2-5 5.082-.254 1.523-15.463 3-19-4.703.949-.815-10.496-7-10zm-118,47c.585,16.661-.35,27.974-2,39 1.165.168 1.086,1.581 1,3v5c-.224,1.7 1.127,2.475 1,0 .619-2.714-1.27-7.937 1-9-2.535,10.73 5.13,42.604 1,47-.614.653-1.456-2.263-2-2-.747,9.409.544,19.209 1,29 .459,9.881-1.999,21.002 2,29 .627-3.039-1.28-8.613 1-10 .414,7.586-.981,16.98 1,23-1.464,2.32-3.169-1.953-3,2 .467,4.677 1.958,10.448 0,16 2.236.431.405,4.929 1,7-.043,1.063.471,2.539 1,1v-4c.65-5.017-1.311-12.644 1-16-1.482,9.648 2.979,28.432-2,29 4.218,3.856-2.2,10.181 3,11v27c-1.003.003-1.19-.81-2-1 6.048,7.948-.25,14.607 2,22 .575-1.758-1.208-5.875 1-6-.389,21.874-.323,29.917 2,51 8.235-.901 12.241,2.426 18,4-3.48-2.623 2.029-11.591-3-7-2.545-6.244 6.206-8.315 1-11-.157,1.177.172,2.839-1,3 .243-3.386-.974-12.135 2-7-1.616-4.74-3.986-13.137-1-20 .224.775.027,1.973 1,2-4.213-9.12-2.831-23.836-3-37 2.251,3.562 3.084-3.665 1-4-4.247,4.607 2.222-8.552 0-9-2.553,5.369-1.423-6.702 2-7-2.279-1.373-3.759,2.578-4,0 .761-9.124-1.858-25.086 2-28-2.118,1.032-3.158-5.393-2-8 .125-.283 2.9,1.938 2-1-3.111-5.702.132-12.06 0-20-1.72-.395-2.563,1.484-3,0-.429-9.58-2.488-22.834 0-32 .311,3.023-1.11,7.777 2,8v-13c-1.966-.299-1.983,1.351-3,2-1.831-6.624 1.796-14.612 2-17 .356-4.182-.987-7.798-1-12-.018-5.543 3.797-12.568-1-17-.633,3.367 1.289,9.288-1,11 .667-14.274-1.601-31.196 2-40-2.737-3.542-4.877-12.824-1-17-4.401-2.962-2.296-10.435 0-14 .505-6.528-.792-14.234 0-18-8.033-9.102 5.869-29.438-11-31-.749,4.918-8.901,2.433-10,7-.663,11.004 1.328,24.661-1,34 .003-.555-.81-1.135-1,0 1.961,2.099.318,7.087 3,6zm89-43c-5.891,1.895-2.795-1.209-6-2-1.938,2.729-5.112,4.221-9,5-1.166,1.833-2.614,3.386-4,5 1.366,5.904-3.872-.312-3,4-1.016,68.005-2.35,131.779-1,188 2.507-20.704-.656-55.168 2-79 .625,32.385-.564,81.275 0,108-1.464,2.32-3.169-1.953-3,2 .619,2.714-1.27,7.937 1,9 .575-1.758-1.208-5.875 1-6-1.17,21.188 2.479,55.794-2,77 5.058,5.941-.463,22.463 3,30 3.035-2.965 12.965.965 16-2-1.373-43.594 2.474-99.72 2-146 2.72-.613 1.431-5.236 3-7-2.23.182-1.765-1.062-2-3-1.54-12.69.374-33.575 1-46 .038,11.609 3.464-9.172 2-15-.558-2.221-3.332-4.336-2-8 1.371-3.771 1.414.535 0-3-2.676-6.689 1.254-32.971 2-22 .889-16.675-1.516-30.279 0-43 .609,2.391-1.256,7.255 1,8 1.371-7.984 1.301-35.86 0-43-.521,2.857-1.479-1.614-2-2 .261-1.556 2.193-.693 3,0-.334-3.667-3.963-4.037-3-9zm-59,38c0,10.748-.723,21.393 0,29 .75,7.885 1.825,20.203-1,25 1.685.044 1.761.389 2,2 2.146,14.476 0,38.264 0,53 0,5.916-1.65,13.673 2,16 .65-5.017-1.311-12.644 1-16-.355,20.978.896,43.562-1,63-.745,3.078 2.745,1.922 2,5-1.889.749-.694,2.984-3,1 2.083,3.153-.508,13.219 3,12 .568,23.766-1.198,49.865 1,72-.09,1.576-2.551.782-2,3 4.637,8.154-2.698,11.811 0,19 .239-1.086 1.646-2.401 2-1-.114,8.017-.624,10.471 0,18 7.094-.761 11.425,1.242 18,1 1.171-7.417 1.003-10.936-1-12 1.918-10.456 3.142-29.252 2-44-.134-1.73-1.459.351-2-1-1.052-2.629.006-8.421 1-9 .224.776.027,1.973 1,2-.719-4.813.978-11.626 0-15-.461-1.591-3.273,1.007-2-2 2.704-8.79 2.576-17.531 0-27 3.634-2.907 2.66-8.871 2-16 3.05-.95 1.774-6.226 2-10-2.279-1.373-3.759,2.578-4,0 3.342-14.883-1.4-15.673 1-30-1.146,3.146 1.57,2.43 2,4v7c-.725,3.616 1.725,3.616 1,0v-15c-2.884-1.315-1.429-6.965-4-6-1.529-8.862 2.631-12.036 2-20-.239-1.875-1.646.567-2-1-1.448-9.448 2.226-13.774 2-22-.239-1.875-1.646.567-2-1 3.611-18.709-.221-18.961 0-39 1.003-.003 1.19.81 2,1-3.109-3.423 1.07-2.773 0-9-5.276-1.744.075-13.673 0-13-.015.134-2.689-.449-2-1 3.102-2.481.581-4.995 2-11-5.236-8.643.208-21.868-3-32 2.652.319-.936-5.602 3-4-5.545-5.313 2.864-12.111-7-15-.738,3.172-5.718,1.389-9,3-2.643,1.297-3.534,4.202-6,5-1.995,4.535 2.236,9.394-2,12-2.157-8.509 3.271-14.704 4-17-7.75,5.774-5,19.027-5,36zm24-10c2.292.375 1.333,4 3,5-.46-3.579 1.047-14.329-1-13 .998,4.331-1.117,5.549-2,8zm4,24c-1.685-4.004.031-16.667-2-17 1.168,5.166-2.439,15.106 2,17zm-1,24c.562-.968.522-16.668-1-18 .653,5.68-1.315,13.982 1,18zm0,24c.006-4.116.875-19.428-1-21 .656,6.677-1.32,15.986 1,21zm0,44c-.54-5.148 1.16-17.797-1-18 .54,5.148-1.16,17.797 1,18zm0,23c-.551-5.47 1.174-18.48-1-19 .551,5.47-1.174,18.48 1,19zm9,89c-.647-4.686 1.308-11.975-1-15 .065,4.251-3.367,12.757 1,15zm55,18c-.09,4.643-1.374,11.479 1,12-1.231-8.912 2.012-18.637 0-25-1.688,2.695-.899,7.821-1,13zm-179,47c.205-4.205.36-8.36-3-9-.205,4.205-.36,8.36 3,9zm229,3c4.098.388 3.746-8.863 2-11-2.596,1.737-2.026,6.641-2,11zm-223,1c.034-4.367-.869-7.798-2-11h-3c1.911,3.423-.724,11.391 5,11zm218,2c3.981-.386 3.783-10.172 2-13-2.994,2.006-1.791,8.209-2,13zm-185,17c34.092,15.097 88.471,18.997 130,8 2.673-.994-1.326-8.659 3-8 .022,2.355-1.723,2.944-1,6 4.857-.143 8.423-1.577 12-3 1.755-3.578-.155-10.822 2-14v12c2.153,1.653 6.154-1.25 9-2v-11c-10.089-3.362-17.722,3.325-24,7-8.432-5.094-15.972,2.988-24,4-4.583.577-10.646-1.479-16-1-5.388.481-9.907,3.227-14,3-6.684-.37-12.08-4.717-19-4-3.8.394-5.311,2.718-10,3-7.258-4.081-16.621-7.932-28-5-5.145-5.127-14.725-10.236-25-7-3.589-1.588-6.282-7.477-11-9-3.931-1.27-6.668.191-10,0-1.621-2.713-3.032-5.635-6-7v10c6.109,2.891 9.982,8.018 17,10 .575-1.758-1.208-5.875 1-6-.01,2.656.378,5.711-1,7 6.021.979 8.223,5.776 15,6 .347-2.759-2.871-7.022 0-9-.45,3.8 2.591,7.115 0,10zm180-13c2.423-1.944 4.307-9.647 2-13-1.659,2.708-4.981,8.973-2,13zm-8,3c5.007.007 4.733-5.267 5-10-1.278-.055-1.385-1.282-3-1-1.244,3.09-1.558,7.109-2,11zm-6,4c5.06-1.273 5.16-7.507 5-14-7.596-1.907-6.958,9.679-5,14zm-10,4c3.073-.261 4.497-2.17 7-3-1.208-5.999 3.196-9.526-1-12-5.119,4.079-6.756,5.479-6,15z" fill-rule="evenodd"/>
 <path d="m69,194c-2.845-2.078-2.847-7.345-3-10-.219-3.804.957-7.474 0-16-.127-2.474 1.224-1.7 1,0 .855,8.549.643,16.202 2,26z" fill-rule="evenodd"/>
 <path d="m323,408c3.572.752.51,7.236 0,10-1.08,3.92 2.315,12.315-2,13 1.267-7.066 1.719-14.948 2-23z" fill-rule="evenodd"/>
 <path d="m318,468c2.5,1.173 1.326,7.661 1,12-.363,4.83-.223,11.422-3,13 1.35-9.695 2.184-13.771 2-25z" fill-rule="evenodd"/>
 <path d="m234,22c-.467,8.467 1.777,14.222 1,23-20.129-1.871-41.818-2.182-64-2 .194-8.139.569-16.098 2-23 19.27,1.73 42.094-.094 61,2zm-55,1c-.66,3.485-1.146,5.812-1,12 17.885,3.024 35.556,2.165 54,3 2.492-3.732.12-9.707 0-14-18.535.535-34.234-1.766-53-1zm14,15c.169,1.352-5.085,1.999-2,3 6.384-.2 29.806,2.919 42,0-10.847-3.486-27.268-1.399-40-3z" fill-rule="evenodd"/>
</svg>